<svg width="23" height="24" viewBox="0 0 23 24" fill="none" xmlns="http://www.w3.org/2000/svg">
<g clip-path="url(#clip0_1_39)">
<path d="M11.5 2.5709C14.5727 2.5709 14.9365 2.58437 16.1449 2.63828C17.268 2.6877 17.8744 2.87637 18.2787 3.03359C18.8133 3.24023 19.1996 3.4918 19.5994 3.8916C20.0037 4.2959 20.2508 4.67773 20.4574 5.2123C20.6146 5.6166 20.8033 6.22754 20.8527 7.34609C20.9066 8.55898 20.9201 8.92285 20.9201 11.991C20.9201 15.0637 20.9066 15.4275 20.8527 16.6359C20.8033 17.759 20.6146 18.3654 20.4574 18.7697C20.2508 19.3043 19.9992 19.6906 19.5994 20.0904C19.1951 20.4947 18.8133 20.7418 18.2787 20.9484C17.8744 21.1057 17.2635 21.2943 16.1449 21.3437C14.932 21.3977 14.5682 21.4111 11.5 21.4111C8.42734 21.4111 8.06348 21.3977 6.85508 21.3437C5.73203 21.2943 5.12559 21.1057 4.72129 20.9484C4.18672 20.7418 3.80039 20.4902 3.40059 20.0904C2.99629 19.6861 2.74922 19.3043 2.54258 18.7697C2.38535 18.3654 2.19668 17.7545 2.14727 16.6359C2.09336 15.423 2.07988 15.0592 2.07988 11.991C2.07988 8.91836 2.09336 8.55449 2.14727 7.34609C2.19668 6.22305 2.38535 5.6166 2.54258 5.2123C2.74922 4.67773 3.00078 4.29141 3.40059 3.8916C3.80488 3.4873 4.18672 3.24023 4.72129 3.03359C5.12559 2.87637 5.73652 2.6877 6.85508 2.63828C8.06348 2.58437 8.42734 2.5709 11.5 2.5709ZM11.5 0.5C8.37793 0.5 7.98711 0.513477 6.76074 0.567383C5.53887 0.621289 4.69883 0.818945 3.97109 1.10195C3.21191 1.39844 2.56953 1.78926 1.93164 2.43164C1.28926 3.06953 0.898438 3.71191 0.601953 4.4666C0.318945 5.19883 0.121289 6.03437 0.0673828 7.25625C0.0134766 8.48711 0 8.87793 0 12C0 15.1221 0.0134766 15.5129 0.0673828 16.7393C0.121289 17.9611 0.318945 18.8012 0.601953 19.5289C0.898438 20.2881 1.28926 20.9305 1.93164 21.5684C2.56953 22.2062 3.21191 22.6016 3.9666 22.8936C4.69883 23.1766 5.53437 23.3742 6.75625 23.4281C7.98262 23.482 8.37344 23.4955 11.4955 23.4955C14.6176 23.4955 15.0084 23.482 16.2348 23.4281C17.4566 23.3742 18.2967 23.1766 19.0244 22.8936C19.7791 22.6016 20.4215 22.2062 21.0594 21.5684C21.6973 20.9305 22.0926 20.2881 22.3846 19.5334C22.6676 18.8012 22.8652 17.9656 22.9191 16.7438C22.973 15.5174 22.9865 15.1266 22.9865 12.0045C22.9865 8.88242 22.973 8.4916 22.9191 7.26523C22.8652 6.04336 22.6676 5.20332 22.3846 4.47559C22.1016 3.71191 21.7107 3.06953 21.0684 2.43164C20.4305 1.79375 19.7881 1.39844 19.0334 1.10645C18.3012 0.823437 17.4656 0.625781 16.2438 0.571875C15.0129 0.513477 14.6221 0.5 11.5 0.5Z" fill="#C67A88"/>
<path d="M11.5 6.09277C8.23867 6.09277 5.59277 8.73867 5.59277 12C5.59277 15.2613 8.23867 17.9072 11.5 17.9072C14.7613 17.9072 17.4072 15.2613 17.4072 12C17.4072 8.73867 14.7613 6.09277 11.5 6.09277ZM11.5 15.8318C9.38418 15.8318 7.66816 14.1158 7.66816 12C7.66816 9.88418 9.38418 8.16816 11.5 8.16816C13.6158 8.16816 15.3318 9.88418 15.3318 12C15.3318 14.1158 13.6158 15.8318 11.5 15.8318Z" fill="#C67A88"/>
<path d="M19.0199 5.85909C19.0199 6.62276 18.4 7.23819 17.6408 7.23819C16.8771 7.23819 16.2617 6.61827 16.2617 5.85909C16.2617 5.09541 16.8816 4.47998 17.6408 4.47998C18.4 4.47998 19.0199 5.0999 19.0199 5.85909Z" fill="#C67A88"/>
</g>
<defs>
<clipPath id="clip0_1_39">
<rect width="23" height="23" fill="white" transform="translate(0 0.5)"/>
</clipPath>
</defs>
</svg>
